<?xml version="1.0" encoding="UTF-8"?>
<svg width="170px" height="52px" viewBox="0 0 170 52" version="1.1" xmlns="http://www.w3.org/2000/svg" xmlns:xlink="http://www.w3.org/1999/xlink">
    <title>DSENT_Logo_cmyk</title>
    <g id="Page-1" stroke="none" stroke-width="1" fill="none" fill-rule="evenodd">
        <g id="Desktop-HD" transform="translate(-102.000000, -460.000000)">
            <g id="DSENT_Logo_cmyk" transform="translate(102.000000, 460.000000)">
                <path d="M142.984273,28.2531469 L134.084383,16.9580795 L131.307665,16.9580795 L131.307665,35.1732374 L134.732683,35.1732374 L134.732683,22.8914731 L144.282074,35.1732374 L146.409892,35.1732374 L146.409892,16.9580795 L142.984273,16.9580795 L142.984273,28.2531469 Z M97.9576628,19.9722194 C96.5824977,17.1664689 93.6498518,16.3605363 90.8215576,16.3605363 C87.4739033,16.3863598 83.7892046,17.9195535 83.7892046,21.6609545 C83.7892046,25.7404628 87.2148229,26.7277603 90.9253097,27.1697621 C93.3385955,27.430399 95.1293687,28.1306356 95.1293687,29.8463952 C95.1293687,31.8209902 93.1047035,32.5746753 90.9510978,32.5746753 C88.7453163,32.5746753 86.6438865,31.6912723 85.8396578,29.6902533 L82.9849759,31.1718 C84.3343529,34.4976233 87.1884351,35.6404622 90.8995216,35.6404622 C94.9476526,35.6404622 98.5279995,33.9000801 98.5279995,29.8463952 C98.5279995,25.5068505 94.9992288,24.519553 91.2107779,24.0517277 C89.0313842,23.7916914 87.162647,23.3496896 87.162647,21.7648489 C87.162647,20.4136206 88.3818841,19.3482522 90.9253097,19.3482522 C92.8971993,19.3482522 94.6100085,20.3361502 95.232521,21.3750946 L97.9576628,19.9722194 Z M107.691768,20.2839027 L107.691768,35.1732374 L121.288691,35.1732374 L121.288691,31.7951667 L111.090399,31.7951667 L111.090399,27.6892343 L120.924659,27.6892343 L120.924659,24.4937295 L111.090399,24.4937295 L111.090399,20.2839027 L121.288691,20.2839027 L121.288691,16.9580795 L107.691768,16.9580795 L107.691768,20.2839027 Z M66.1153648,16.9580795 C63.8837951,16.9580795 61.211429,16.9580795 58.9792596,16.9580795 L58.9792596,20.2058317 L66.1153648,20.2058317 C70.0597436,20.2058317 71.7203769,23.0428106 71.7983409,25.8833928 C71.8763049,28.8542934 70.24086,31.8732377 66.1153648,31.8732377 L62.3784901,31.8732377 L62.3784901,23.531655 L58.9792596,23.531655 L58.9792596,35.1732374 C61.211429,35.1732374 63.8837951,35.1732374 66.1153648,35.1732374 C72.4730294,35.1732374 75.2755354,30.5220094 75.1981711,25.9098168 C75.1196074,21.4009181 72.3428895,16.9580795 66.1153648,16.9580795 Z M160.814041,35.1732374 L164.23906,35.1732374 L164.23906,20.0755133 L170,20.0755133 L170,16.9580795 C164.732632,16.9580795 160.295281,16.9580795 155.053101,16.9580795 L155.053101,20.0755133 L160.814041,20.0755133 L160.814041,35.1732374 L160.814041,35.1732374 Z" id="Fill-1" fill="#FFFFFF"></path>
                <path d="M24.5125733,24.5441754 L24.4909833,24.5567869 L17.1293822,11.7885803 C16.6753918,11.0000635 16.3725316,10.1659052 16.2130053,9.31973605 C15.6096839,6.13083727 17.0352257,2.76898127 20.0014561,1.0544227 C23.755123,-1.11595022 28.5541073,0.171620211 30.7209068,3.93043706 C32.8883061,7.68865336 31.6024998,12.4942217 27.8488329,14.6645946 C27.2461112,15.0129113 26.6176014,15.271146 25.9758977,15.4459049 L24.0567837,12.1164783 C24.73627,12.0960598 25.4211538,11.9116922 26.0514628,11.5471608 C28.0851238,10.3706914 28.7826018,7.76672433 27.6077442,5.73027315 C26.4340861,3.69322142 23.833087,2.99538708 21.799426,4.17125597 C20.6101751,4.85828049 19.8779132,6.03354883 19.709391,7.29829852 C19.5888466,8.19731574 19.7543702,9.14197446 20.2425448,9.98814364 L25.9591054,19.9037572 L24.5125733,24.5441754 Z M25.0781122,25.5879242 L29.8459108,24.6732928 L35.8737277,14.9438485 C36.3882901,14.1132935 37.1415423,13.5217558 37.9895508,13.2028659 C39.1824001,12.7542581 40.5623629,12.8455411 41.7288243,13.5704 C43.7247028,14.8099267 44.3388193,17.4349129 43.1009908,19.4335297 C41.8625626,21.4321465 39.2411729,22.047706 37.2452944,20.8075787 C36.6269799,20.4226288 36.1412042,19.9061593 35.8017609,19.3158227 L33.7776955,22.5821919 C34.2340848,23.0662319 34.7594422,23.4992255 35.3507692,23.8661591 C39.033069,26.1536384 43.8704355,25.0192072 46.1553805,21.3312548 C48.4403256,17.6433023 47.3068489,12.799299 43.6239493,10.5118197 C40.7128934,8.70357594 37.0809703,9.03327565 34.5585349,11.0715285 C33.889244,11.6126203 33.297917,12.2732208 32.8187382,13.046724 L25.0571219,25.5753127 L25.0781122,25.5879242 Z M24.4909833,27.324703 L27.7804645,30.8997528 L39.2147851,30.8997528 C40.1905346,30.8997528 41.0895195,31.2288519 41.8073881,31.7819547 C42.816722,32.5602622 43.4668219,33.7835742 43.4668219,35.1582238 C43.4668219,37.5099616 41.5633008,39.4154937 39.2147851,39.4154937 C36.8656697,39.4154937 34.9621486,37.5099616 34.9621486,35.1582238 C34.9621486,34.4291611 35.1444644,33.7427371 35.4671154,33.1427917 L31.6276882,33.1427917 C31.4573668,33.7859764 31.3674083,34.4615905 31.3674083,35.1582238 C31.3674083,39.4977685 34.8799865,43.0157665 39.2147851,43.0157665 C43.5483842,43.0157665 47.0615622,39.4977685 47.0615622,35.1582238 C47.0615622,31.7279056 44.8671753,28.8104535 41.8073881,27.7390796 C40.9959627,27.4538203 40.1233656,27.3000806 39.2147851,27.3000806 L24.4909833,27.3000806 L24.4909833,27.324703 Z M22.8231533,27.455622 L22.8447433,27.443611 L30.2063444,40.2118176 C30.6603348,40.9997339 30.9625952,41.8338921 31.1227213,42.6800613 C31.725443,45.8695606 30.3005009,49.2308161 27.3336708,50.9459752 C23.5806036,53.1157476 18.7810196,51.8281771 16.6142201,48.0699608 C14.4474205,44.311144 15.7332268,39.5055756 19.4868937,37.3358033 C20.0890157,36.9868861 20.7181252,36.7280508 21.3592292,36.5538925 L23.2789429,39.883319 C22.5988569,39.9037376 21.9139731,40.0887057 21.2842638,40.4526365 C19.2500031,41.629106 18.5531248,44.233073 19.7273827,46.2701248 C20.9016405,48.3065759 23.5020399,49.0044103 25.5363006,47.8279408 C26.7249518,47.1415169 27.4572137,45.9662485 27.6257359,44.7014988 C27.7456805,43.8024816 27.5813564,42.8578229 27.0925821,42.0116537 L21.3760215,32.0960402 L22.8231533,27.455622 Z M22.2570147,26.4118732 L17.4892161,27.3271051 L11.4619989,37.0559489 C10.9474365,37.8865039 10.1935845,38.4780416 9.34557607,38.7969315 C8.15332655,39.2449387 6.77276397,39.1542563 5.60630254,38.4293974 C3.61042406,37.1898706 2.99630761,34.5642839 4.23473581,32.5662676 C5.47256429,30.5676509 8.09395396,29.9532924 10.0898324,31.1922186 C10.7087467,31.5771685 11.1945224,32.093638 11.5333659,32.6845752 L13.5574314,29.4176054 C13.1010421,28.9335654 12.5762844,28.5011724 11.9849574,28.1336383 C8.30205788,25.8461589 3.46469135,26.9805901 1.17974634,30.6685426 C-1.10459895,34.3570955 0.0288777058,39.2004983 3.71177727,41.4885782 C6.62223347,43.2962214 10.2541566,42.9671223 12.7771917,40.9282689 C13.4458829,40.3877776 14.0378096,39.7265765 14.5163886,38.9536739 L22.278005,26.4250852 L22.2570147,26.4118732 Z M22.8447433,24.6750944 L19.5546624,21.1000446 L8.1209415,21.1000446 C7.14459229,21.1000446 6.24560737,20.771546 5.52833854,20.2178427 C4.51900456,19.4395352 3.86890472,18.2168237 3.86890472,16.8421741 C3.86890472,14.4904363 5.77242584,12.5843036 8.1209415,12.5843036 C10.4694572,12.5843036 12.373578,14.4904363 12.373578,16.8421741 C12.373578,17.5706363 12.1906625,18.2570603 11.8686112,18.8570056 L15.7080384,18.8570056 C15.8777601,18.213821 15.9683183,17.5388074 15.9683183,16.8421741 C15.9683183,12.5020288 12.4551404,8.98463143 8.1209415,8.98463143 C3.78734238,8.98463143 0.273564731,12.5020288 0.273564731,16.8421741 C0.273564731,20.2718918 2.46855128,23.1887433 5.52833854,24.2607177 C6.33976389,24.5453765 7.21236101,24.7003173 8.1209415,24.7003173 L22.8447433,24.7003173 L22.8447433,24.6750944 L22.8447433,24.6750944 Z" id="Fill-2" fill="#61B453"></path>
                <path d="M100.248605,45.1915443 L99.2704567,42.9989512 L98.2869108,45.1915443 L100.248605,45.1915443 Z M99.0491589,42.4326364 L99.5043487,42.4326364 L101.465443,46.7733822 L100.943084,46.7733822 L100.438717,45.6347472 L98.0955991,45.6347472 L97.5858345,46.7733822 L97.0874646,46.7733822 L99.0491589,42.4326364 L99.0491589,42.4326364 Z" id="Fill-3" fill="#FFFFFF"></path>
                <polyline id="Fill-4" fill="#FFFFFF" points="102.435795 42.4632642 102.890985 42.4632642 105.602933 45.9182048 105.602933 42.4632642 106.076114 42.4632642 106.076114 46.7733822 105.688693 46.7733822 102.909576 43.2391695 102.909576 46.7733822 102.435795 46.7733822 102.435795 42.4632642"></polyline>
                <polygon id="Fill-5" fill="#FFFFFF" points="109.424968 46.7733822 109.910744 46.7733822 109.910744 42.4632642 109.424968 42.4632642"></polygon>
                <polyline id="Fill-6" fill="#FFFFFF" points="111.417248 42.4632642 111.871239 42.4632642 114.583786 45.9182048 114.583786 42.4632642 115.057568 42.4632642 115.057568 46.7733822 114.669547 46.7733822 111.89043 43.2391695 111.89043 46.7733822 111.417248 46.7733822 111.417248 42.4632642"></polyline>
                <path d="M119.187861,45.1915443 L118.210312,42.9989512 L117.226166,45.1915443 L119.187861,45.1915443 Z M117.989014,42.4326364 L118.443604,42.4326364 L120.405898,46.7733822 L119.88294,46.7733822 L119.378573,45.6347472 L117.036054,45.6347472 L116.52509,46.7733822 L116.02732,46.7733822 L117.989014,42.4326364 L117.989014,42.4326364 Z" id="Fill-7" fill="#FFFFFF"></path>
                <path d="M121.184339,44.6306344 L121.184339,44.6186235 C121.184339,43.3989148 122.094119,42.3893971 123.361334,42.3893971 C124.142173,42.3893971 124.609957,42.6668493 125.039959,43.0728183 L124.708312,43.4301431 C124.34488,43.0854298 123.939467,42.839206 123.355336,42.839206 C122.401777,42.839206 121.688706,43.6151113 121.688706,44.606012 L121.688706,44.6186235 C121.688706,45.6161303 122.407774,46.398041 123.355336,46.398041 C123.945464,46.398041 124.332885,46.1704341 124.744295,45.7758755 L125.064547,46.0905615 C124.615355,46.5463759 124.123582,46.8472494 123.342142,46.8472494 C122.100716,46.8472494 121.184339,45.8689601 121.184339,44.6306344" id="Fill-8" fill="#FFFFFF"></path>
                <polyline id="Fill-9" fill="#FFFFFF" points="127.171974 42.9130731 125.727241 42.9130731 125.727241 42.4632642 129.10908 42.4632642 129.10908 42.9130731 127.663747 42.9130731 127.663747 46.7733822 127.171974 46.7733822 127.171974 42.9130731"></polyline>
                <path d="M132.686428,45.1915443 L131.708879,42.9989512 L130.724734,45.1915443 L132.686428,45.1915443 Z M131.486982,42.4326364 L131.942172,42.4326364 L133.904466,46.7733822 L133.381507,46.7733822 L132.87714,45.6347472 L130.534622,45.6347472 L130.023658,46.7733822 L129.525887,46.7733822 L131.486982,42.4326364 L131.486982,42.4326364 Z" id="Fill-10" fill="#FFFFFF"></path>
                <path d="M136.527655,44.6306344 L136.527655,44.6186235 C136.527655,43.3989148 137.437435,42.3893971 138.704649,42.3893971 C139.485489,42.3893971 139.953273,42.6668493 140.382675,43.0728183 L140.051628,43.4301431 C139.688195,43.0854298 139.282783,42.839206 138.698652,42.839206 C137.745092,42.839206 137.032022,43.6151113 137.032022,44.606012 L137.032022,44.6186235 C137.032022,45.6161303 137.75109,46.398041 138.698652,46.398041 C139.28878,46.398041 139.676201,46.1704341 140.087611,45.7758755 L140.407263,46.0905615 C139.95867,46.5463759 139.466897,46.8472494 138.685458,46.8472494 C137.444031,46.8472494 136.527655,45.8689601 136.527655,44.6306344" id="Fill-11" fill="#FFFFFF"></path>
                <path d="M145.073709,44.6306344 L145.073709,44.6186235 C145.073709,43.6397337 144.360038,42.839206 143.376492,42.839206 C142.392347,42.839206 141.69127,43.6271222 141.69127,44.606012 L141.69127,44.6186235 C141.69127,45.5975133 142.404941,46.398041 143.388487,46.398041 C144.372632,46.398041 145.073709,45.6101248 145.073709,44.6306344 Z M141.186903,44.6306344 L141.186903,44.6186235 C141.186903,43.4301431 142.079291,42.3893971 143.388487,42.3893971 C144.698282,42.3893971 145.578076,43.4181322 145.578076,44.606012 L145.578076,44.6186235 C145.578076,45.8071039 144.686288,46.8472494 143.376492,46.8472494 C142.066097,46.8472494 141.186903,45.8197153 141.186903,44.6306344 L141.186903,44.6306344 Z" id="Fill-12" fill="#FFFFFF"></path>
                <polyline id="Fill-13" fill="#FFFFFF" points="146.725946 42.4632642 147.217719 42.4632642 148.785995 44.8156026 150.354271 42.4632642 150.846643 42.4632642 150.846643 46.7733822 150.360268 46.7733822 150.360268 43.2824089 148.791992 45.5915079 148.767403 45.5915079 147.199727 43.2884143 147.199727 46.7733822 146.725946 46.7733822 146.725946 42.4632642"></polyline>
                <path d="M153.73371,44.8095971 C154.447381,44.8095971 154.914565,44.4276499 154.914565,43.8613351 L154.914565,43.8487236 C154.914565,43.2331641 154.453378,42.9130731 153.758299,42.9130731 L152.670401,42.9130731 L152.670401,44.8095971 L153.73371,44.8095971 Z M152.184026,42.4632642 L153.796082,42.4632642 C154.767033,42.4632642 155.406338,42.9803343 155.406338,43.8301067 L155.406338,43.8427182 C155.406338,44.7723633 154.632096,45.2528 153.715719,45.2528 L152.670401,45.2528 L152.670401,46.7733822 L152.184026,46.7733822 L152.184026,42.4632642 L152.184026,42.4632642 Z" id="Fill-14" fill="#FFFFFF"></path>
                <path d="M159.204984,45.1915443 L158.227436,42.9989512 L157.24389,45.1915443 L159.204984,45.1915443 Z M158.006138,42.4326364 L158.461328,42.4326364 L160.423022,46.7733822 L159.900063,46.7733822 L159.396296,45.6347472 L157.053178,45.6347472 L156.542813,46.7733822 L156.045043,46.7733822 L158.006138,42.4326364 L158.006138,42.4326364 Z" id="Fill-15" fill="#FFFFFF"></path>
                <polyline id="Fill-16" fill="#FFFFFF" points="161.393374 42.4632642 161.847364 42.4632642 164.559912 45.9182048 164.559912 42.4632642 165.033693 42.4632642 165.033693 46.7733822 164.646272 46.7733822 161.866555 43.2391695 161.866555 46.7733822 161.393374 46.7733822 161.393374 42.4632642"></polyline>
                <polyline id="Fill-17" fill="#FFFFFF" points="167.719253 45.0684324 165.929679 42.4632642 166.520407 42.4632642 167.971137 44.6186235 169.434461 42.4632642 170 42.4632642 168.211026 45.0618264 168.211026 46.7733822 167.719253 46.7733822 167.719253 45.0684324"></polyline>
            </g>
        </g>
    </g>
</svg>