<?xml version="1.0" encoding="UTF-8"?>
<svg width="771px" height="846px" viewBox="0 0 771 846" version="1.1" xmlns="http://www.w3.org/2000/svg" xmlns:xlink="http://www.w3.org/1999/xlink">
    <title>Group 4</title>
    <g id="Page-1" stroke="none" stroke-width="1" fill="none" fill-rule="evenodd">
        <g id="Group-4" transform="translate(1.000000, 1.000000)" stroke="#25FF00" stroke-width="0.5">
            <path d="M398.039604,398.795088 L397.688873,399 L278.099269,191.541489 C270.724171,178.729626 265.804191,165.176178 263.212677,151.427575 C253.411688,99.6141753 276.569691,44.9905573 324.756264,17.132317 C385.734784,-18.1320195 463.69454,2.78849446 498.894315,63.8619537 C534.103833,124.925655 513.21584,203.00679 452.23732,238.271126 C442.446074,243.930594 432.235898,248.126406 421.811387,250.965897 L390.635278,196.869195 C401.673569,196.537433 412.799543,193.541818 423.038946,187.618893 C456.075879,168.503554 467.406446,126.194157 448.320822,93.1057878 C429.254683,60.0076613 387.001313,48.6692111 353.964381,67.7747924 C334.644936,78.9376039 322.749302,98.0334275 320.01165,118.583149 C318.0534,133.190429 320.74234,148.539295 328.672762,162.287898 L421.538596,323.397322 L398.039604,398.795088 Z M407.341069,416 L484.812523,401.147963 L582.757878,243.158569 C591.118948,229.671788 603.358463,220.066236 617.137663,214.888014 C636.520143,207.603397 658.943013,209.085675 677.896721,220.856134 C710.327538,240.98391 720.306251,283.609159 700.192908,316.063248 C680.069819,348.517338 637.475137,358.512963 605.04432,338.375435 C594.997393,332.124512 587.104075,323.737938 581.588498,314.151889 L548.699673,367.192092 C556.115494,375.052067 564.651971,382.083136 574.26038,388.041504 C634.093679,425.186224 712.695533,406.765017 749.823362,346.87903 C786.95119,286.993043 768.533449,208.334784 708.690405,171.190065 C661.388967,141.827305 602.374235,147.18106 561.387451,180.27877 C550.512213,189.065169 540.903804,199.792181 533.117679,212.352538 L407,415.795212 L407.341069,416 Z M398,443.399519 L451.34157,501.407658 L636.75823,501.407658 C652.580789,501.407658 667.158549,506.747564 678.799362,515.722114 C695.166521,528.350797 705.70841,548.200046 705.70841,570.504872 C705.70841,608.663762 674.841291,639.582598 636.75823,639.582598 C598.665444,639.582598 567.798326,608.663762 567.798326,570.504872 C567.798326,558.675226 570.754723,547.53743 575.986768,537.80282 L513.727381,537.80282 C510.965484,548.239023 509.506736,559.201422 509.506736,570.504872 C509.506736,640.917574 566.466002,698 636.75823,698 C707.031008,698 764,640.917574 764,570.504872 C764,514.845122 728.416261,467.50705 678.799362,450.123123 C665.641451,445.494555 651.49159,443 636.75823,443 L398,443 L398,443.399519 Z M370.963466,445.195157 L371.314197,445 L490.903933,652.461872 C498.279039,665.264185 503.189282,678.817853 505.790541,692.566679 C515.581798,744.390676 492.433512,799.005421 444.237144,826.873871 C383.268299,862.129021 305.298714,841.208168 270.098901,780.143477 C234.899087,719.069028 255.787103,640.986628 316.76569,605.731478 C326.547204,600.062161 336.767134,595.856523 347.181914,593.026744 L378.367799,647.124322 C367.319754,647.45609 356.193768,650.461511 345.964096,656.374774 C312.917384,675.490423 301.596548,717.800506 320.67245,750.899169 C339.748352,783.988074 381.992026,795.326708 415.038738,776.211059 C434.348461,765.057824 446.244108,745.961691 448.981763,725.411637 C450.930272,710.80412 448.260815,695.455005 440.320641,681.70618 L347.454705,520.594145 L370.963466,445.195157 Z M361.658924,429 L284.185959,443.861514 L186.248436,601.838234 C177.887203,615.324766 165.637704,624.93014 151.858236,630.108266 C132.485122,637.382997 110.05207,635.910498 91.0979919,624.140257 C58.6665417,604.012852 48.687634,561.378641 68.8111149,528.934903 C88.9248508,496.481414 131.520364,486.505477 163.951814,506.623129 C174.008682,512.873937 181.902154,521.260355 187.408095,530.855978 L220.297561,477.807005 C212.881595,469.947176 204.354697,462.925988 194.7461,456.957979 C134.901889,419.813946 56.2985001,438.234812 19.1699469,498.119691 C-17.9488613,558.014322 0.469239929,636.661375 60.3134513,673.815159 C107.606068,703.167624 166.621952,697.82372 207.619281,664.71687 C218.484986,655.940385 228.103328,645.203819 235.879859,632.653447 L362,429.214536 L361.658924,429 Z M370,400.590737 L316.650122,342.582598 L131.248114,342.582598 C115.41625,342.582598 100.838878,337.252436 89.2080986,328.268142 C72.8413753,315.639459 62.2997662,295.799954 62.2997662,273.495128 C62.2997662,235.336238 93.1660644,204.407658 131.248114,204.407658 C169.330163,204.407658 200.206186,235.336238 200.206186,273.495128 C200.206186,285.315029 197.240142,296.452826 192.017962,306.187436 L254.275693,306.187436 C257.027793,295.751232 258.496227,284.798578 258.496227,273.495128 C258.496227,203.072681 201.528749,146 131.248114,146 C60.9772027,146 4,203.072681 4,273.495128 C4,329.145134 39.5925178,376.473461 89.2080986,393.867133 C102.365661,398.485957 116.515145,401 131.248114,401 L370,401 L370,400.590737 L370,400.590737 Z" id="Fill-2"></path>
            <path d="M397.216579,400.813063 L396.896107,401 L287.624038,211.739604 C280.885223,200.051589 276.389712,187.687039 274.021779,175.144454 C265.066366,127.87609 286.226424,78.0440172 330.255723,52.6294822 C385.973351,20.4585086 457.207168,39.5438897 489.3701,95.260028 C521.541934,150.967264 502.456042,222.199177 446.738414,254.37015 C437.791903,259.533173 428.462605,263.360931 418.937463,265.951345 L390.451058,216.599967 C400.537026,216.297307 410.703112,213.564466 420.059116,208.161095 C450.245803,190.722541 460.598831,152.124494 443.15981,121.938613 C425.738593,91.7438313 387.130612,81.3999821 356.943924,98.8296352 C339.291255,109.013253 328.421911,126.434004 325.920449,145.181118 C324.131146,158.507058 326.588099,172.509532 333.834328,185.052117 L418.688207,332.029136 L397.216579,400.813063 Z M405.31092,417 L475.934068,403.441891 L565.22127,259.216724 C572.84324,246.904928 584.000809,238.136223 596.561958,233.409134 C614.23107,226.759162 634.671807,228.112302 651.950049,238.857304 C681.514054,257.231524 690.610671,296.143209 672.275302,325.769859 C653.931051,355.396509 615.101644,364.521304 585.53764,346.138181 C576.378839,340.431846 569.183273,332.775921 564.15526,324.02502 L534.173735,372.444296 C540.934014,379.6195 548.715885,386.038014 557.474932,391.477282 C612.0191,425.385909 683.672724,408.56958 717.518534,353.900933 C751.364345,299.232286 734.574691,227.42683 680.02164,193.518203 C636.901545,166.713563 583.103584,171.600891 545.739941,201.815089 C535.82605,209.836006 527.067003,219.628469 519.969155,231.094552 L405,416.813053 L405.31092,417 Z M397,441.36505 L445.677826,494.368566 L614.883194,494.368566 C629.32236,494.368566 642.625561,499.247774 653.248598,507.448049 C668.184748,518.987199 677.804942,537.123963 677.804942,557.504452 C677.804942,592.371203 649.636588,620.62253 614.883194,620.62253 C580.120925,620.62253 551.952571,592.371203 551.952571,557.504452 C551.952571,546.695403 554.650485,536.518514 559.425083,527.623753 L502.60914,527.623753 C500.088721,537.159578 498.757513,547.176201 498.757513,557.504452 C498.757513,621.842333 550.736734,674 614.883194,674 C679.011904,674 731,621.842333 731,557.504452 C731,506.646719 698.527408,463.392717 653.248598,447.508579 C641.241105,443.279338 628.328391,441 614.883194,441 L397,441 L397,441.36505 Z M371.786225,443.178038 L372.106698,443 L481.378888,632.263462 C488.11771,643.942765 492.604324,656.307515 494.981161,668.850303 C503.927683,716.128336 482.776503,765.952314 438.738253,791.376163 C383.029466,823.538756 311.786669,804.453065 279.623701,748.744926 C247.460734,693.027885 266.546647,621.794819 322.264336,589.632226 C331.201955,584.460217 340.540165,580.623495 350.056416,578.041942 L378.551754,627.394119 C368.456873,627.696784 358.290776,630.438571 348.943664,635.833127 C318.748041,653.271965 308.403904,691.870637 325.834043,722.065908 C343.264181,752.252278 381.863302,762.596295 412.058925,745.157457 C429.702712,734.982577 440.572067,717.561543 443.073533,698.814125 C444.853935,685.487969 442.414784,671.485268 435.159644,658.94248 L350.305672,511.96308 L371.786225,443.178038 Z M363.689074,428 L293.064548,441.566761 L203.784486,585.780358 C196.162368,598.091926 184.995697,606.860469 172.434303,611.58747 C154.77373,618.228417 134.32371,616.884204 117.045131,606.139401 C87.4805491,587.76552 78.3837547,548.845653 96.7283644,519.228453 C115.064091,489.602351 153.894255,480.49553 183.458836,498.860508 C192.626699,504.566738 199.822406,512.222521 204.841633,520.982162 L234.823744,472.55488 C228.063333,465.379808 220.290193,458.970315 211.530975,453.522246 C156.97686,419.614246 85.3218371,436.430264 51.475366,491.0979 C17.6377784,545.774438 34.4277602,617.569664 88.9818755,651.486565 C132.093929,678.281808 185.89294,673.403471 223.266195,643.180931 C233.171396,635.169064 241.939498,625.367881 249.028601,613.910912 L364,428.195846 L363.689074,428 Z M371,402.626046 L322.314592,349.62253 L153.122595,349.62253 C138.674939,349.62253 125.372091,344.752226 114.75821,336.543047 C99.8224572,325.003898 90.2025189,306.876037 90.2025189,286.495548 C90.2025189,251.628797 118.370124,223.368566 153.122595,223.368566 C187.875066,223.368566 216.051546,251.628797 216.051546,286.495548 C216.051546,297.295693 213.344829,307.472582 208.579233,316.367343 L265.393666,316.367343 C267.905144,306.831518 269.245191,296.823799 269.245191,286.495548 C269.245191,222.148764 217.258476,170 153.122595,170 C88.9955893,170 37,222.148764 37,286.495548 C37,337.344377 69.4806037,380.589476 114.75821,396.482517 C126.765384,400.702855 139.677755,403 153.122595,403 L371,403 L371,402.626046 L371,402.626046 Z" id="Fill-2"></path>
            <path d="M395.930965,402.829497 L395.639377,403 L296.215863,230.377881 C290.084409,219.717383 285.994073,208.439827 283.839559,196.999887 C275.691286,153.886983 294.944214,108.435752 335.005208,85.2554617 C385.701075,55.9127056 450.514677,73.320251 479.778803,124.138267 C509.05103,174.948164 491.685326,239.91793 440.989459,269.260686 C432.849285,273.969817 424.360825,277.461069 415.694173,279.823754 L389.775212,234.810959 C398.952144,234.534907 408.201973,232.042315 416.714732,227.113966 C444.180731,211.208471 453.600653,176.003659 437.733389,148.471483 C421.882325,120.931187 386.754033,111.496687 359.288034,127.394063 C343.226378,136.682417 333.336674,152.571674 331.060666,169.67069 C329.432631,181.825119 331.668141,194.596606 338.261277,206.036546 L415.467382,340.092508 L395.930965,402.829497 Z M403.283596,418 L467.700468,405.623303 L549.141219,273.965474 C556.09338,262.72649 566.270435,254.721863 577.727725,250.406678 C593.844097,244.336164 612.488527,245.571396 628.248378,255.380111 C655.214334,272.153259 663.511551,307.674299 646.787473,334.719373 C630.055292,361.764448 594.638167,370.094136 567.672211,353.312862 C559.318275,348.10376 552.755046,341.114948 548.168889,333.126575 L520.822104,377.326743 C526.988298,383.876722 534.086308,389.735947 542.07562,394.701253 C591.826512,425.655186 657.183303,410.304181 688.054784,360.399192 C718.926266,310.494203 703.612066,244.945654 653.853072,213.99172 C614.522318,189.522754 565.452057,193.984216 531.371886,221.565642 C522.329216,228.88764 514.339903,237.826818 507.865805,248.293782 L403,417.829343 L403.283596,418 Z M396,440.332149 L440.451309,488.558523 L594.965192,488.558523 C608.150658,488.558523 620.298791,492.997975 629.999469,500.459169 C643.638767,510.958309 652.423675,527.46043 652.423675,546.004051 C652.423675,577.728304 626.701076,603.433375 594.965192,603.433375 C563.221204,603.433375 537.498605,577.728304 537.498605,546.004051 C537.498605,536.169208 539.962269,526.909549 544.322306,518.816462 L492.439485,518.816462 C490.137904,527.492835 488.92228,536.606672 488.92228,546.004051 C488.92228,604.543238 536.388335,652 594.965192,652 C653.52584,652 701,604.543238 701,546.004051 C701,499.730062 671.346885,460.374489 629.999469,445.921969 C619.034542,442.073904 607.242992,440 594.965192,440 L396,440 L396,440.332149 Z M373.071587,441.162386 L373.363176,441 L472.786799,613.624916 C478.91826,624.277467 483.000501,635.555206 485.163117,646.995332 C493.303299,690.117054 474.058449,735.560902 433.989312,758.749687 C383.301488,788.084799 318.479716,770.676972 289.215557,719.866251 C259.951398,669.047412 277.317121,604.076593 328.013044,574.741481 C336.145127,570.024154 344.641696,566.524726 353.300258,564.170123 L379.227347,609.183647 C370.042305,609.459704 360.792466,611.960455 352.287797,616.880764 C324.813669,632.786517 315.401836,667.9919 331.261017,695.532642 C347.120199,723.065264 382.24043,732.499917 409.714558,716.594164 C425.768132,707.313779 435.657847,691.424264 437.933858,674.324971 C439.553795,662.170345 437.334481,649.398651 430.733239,637.958526 L353.527049,503.900392 L373.071587,441.162386 Z M365.716398,427 L301.29827,439.384595 L219.864031,571.031862 C212.911735,582.270638 202.726378,590.275117 191.268865,594.590222 C175.160281,600.652497 156.507384,599.425415 140.747225,589.616881 C113.780743,572.844044 105.483364,537.315534 122.215872,510.279086 C138.940277,483.234512 174.358093,474.921231 201.324575,491.685941 C209.686777,496.894947 216.250134,503.883629 220.828278,511.879982 L248.175596,467.672504 C242.009282,461.122647 234.919237,455.271657 226.929768,450.298316 C177.169802,419.344955 111.811736,434.695677 80.939652,484.599743 C50.0756706,534.511935 65.3901691,600.051145 115.150135,631.012632 C154.473554,655.47302 203.544772,651.019766 237.633711,623.430725 C246.668455,616.116988 254.666027,607.16985 261.132148,596.711206 L366,427.17878 L365.716398,427 Z M372,403.65975 L327.541769,355.433375 L173.040095,355.433375 C159.846875,355.433375 147.699065,351.002025 138.006749,343.53273 C124.367813,333.033589 115.583138,316.53957 115.583138,297.995949 C115.583138,266.271696 141.305054,240.558523 173.040095,240.558523 C204.775136,240.558523 230.505155,266.271696 230.505155,297.995949 C230.505155,307.822691 228.033452,317.082349 223.681635,325.175437 L275.563078,325.175437 C277.856494,316.499064 279.080189,307.393328 279.080189,297.995949 C279.080189,239.448661 231.607291,192 173.040095,192 C114.481002,192 67,239.448661 67,297.995949 C67,344.261837 96.6604315,383.609309 138.006749,398.06993 C148.971384,401.909893 160.762621,404 173.040095,404 L372,404 L372,403.65975 L372,403.65975 Z" id="Fill-2"></path>
        </g>
    </g>
</svg>